<svg width="15" height="15" viewBox="0 0 15 15" fill="none" xmlns="http://www.w3.org/2000/svg">
<g clip-path="url(#clip0_5_915)">
<path d="M9.05744 10.3936C8.91963 10.4281 8.77419 10.4145 8.6451 10.3552C6.90898 9.50317 5.50403 8.09998 4.64978 6.36492C4.58652 6.23515 4.57013 6.08747 4.6034 5.94698C4.63667 5.80649 4.71755 5.68185 4.8323 5.59423L5.12482 5.37484C5.28008 5.2584 5.40609 5.10741 5.49289 4.93382C5.57968 4.76024 5.62486 4.56883 5.62486 4.37476V2.49961C5.62486 2.16806 5.49316 1.8501 5.25872 1.61566C5.02428 1.38122 4.70631 1.24951 4.37476 1.24951H2.49961C2.16806 1.24951 1.8501 1.38122 1.61566 1.61566C1.38122 1.8501 1.24951 2.16806 1.24951 2.49961C1.24951 5.48354 2.43487 8.34525 4.54482 10.4552C6.65478 12.5652 9.51649 13.7505 12.5004 13.7505C12.832 13.7505 13.1499 13.6188 13.3844 13.3844C13.6188 13.1499 13.7505 12.832 13.7505 12.5004V10.6253C13.7505 10.2937 13.6188 9.97575 13.3844 9.74131C13.1499 9.50687 12.832 9.37516 12.5004 9.37516H10.6253C10.4312 9.37516 10.2398 9.42035 10.0662 9.50714C9.89262 9.59393 9.74162 9.71994 9.62518 9.8752L9.40329 10.1658C9.31724 10.2789 9.19526 10.3592 9.05744 10.3936Z" stroke="#FF7A3D" stroke-width="2" stroke-linecap="round"/>
</g>
<defs>
<clipPath id="clip0_5_915">
<rect width="15" height="15" fill="white"/>
</clipPath>
</defs>
</svg>
